<svg id="Address" xmlns="http://www.w3.org/2000/svg" width="16" height="16" viewBox="0 0 16 16">
  <g id="Group_11" data-name="Group 11">
    <path id="Path_164" data-name="Path 164" d="M7.984,5.376A1.557,1.557,0,0,1,9.552,6.944,1.557,1.557,0,0,1,7.984,8.512,1.557,1.557,0,0,1,6.416,6.944,1.557,1.557,0,0,1,7.984,5.376Zm3.9,1.6a3.751,3.751,0,0,0-.3-1.5,3.925,3.925,0,0,0-.832-1.232A4.038,4.038,0,0,0,9.52,3.4a3.67,3.67,0,0,0-1.5-.312H7.984a3.67,3.67,0,0,0-1.5.312,4.039,4.039,0,0,0-1.232.84,3.924,3.924,0,0,0-.832,1.232,3.753,3.753,0,0,0-.3,1.5v.112a.065.065,0,0,0,.016.048,3.249,3.249,0,0,0,.08.688,2.558,2.558,0,0,0,.224.64q.192.416.464.912t.584,1.032q.312.536.6.992t.512.784a3.522,3.522,0,0,0,.32.424q.128.128.3.272t.328.256a2.335,2.335,0,0,0,.288.176A.5.5,0,0,0,8,13.376a.447.447,0,0,0,.168-.064q.12-.064.28-.168a3.133,3.133,0,0,0,.328-.248q.168-.144.312-.288a3.527,3.527,0,0,0,.32-.424q.224-.328.512-.792t.6-.992q.312-.528.584-1.032t.456-.912a3.443,3.443,0,0,0,.232-.632q.032-.176.048-.344t.032-.344V7.088a.112.112,0,0,1,.008-.048.112.112,0,0,0,.008-.048V6.976ZM8,0a7.768,7.768,0,0,1,3.112.632,7.991,7.991,0,0,1,4.256,4.256,7.989,7.989,0,0,1,.344,5.24A8.113,8.113,0,0,1,14.9,12.04,8.01,8.01,0,0,1,12.04,14.9a8.109,8.109,0,0,1-1.912.808,8,8,0,0,1-4.256,0A8.11,8.11,0,0,1,3.96,14.9,8.011,8.011,0,0,1,1.1,12.04a8.111,8.111,0,0,1-.808-1.912,8.006,8.006,0,0,1,0-4.256A8.112,8.112,0,0,1,1.1,3.96,8.011,8.011,0,0,1,3.96,1.1,8.112,8.112,0,0,1,5.872.288,7.822,7.822,0,0,1,8,0Z" fill="#fff"/>
  </g>
</svg>
