<svg xmlns="http://www.w3.org/2000/svg" width="16" height="16" viewBox="0 0 16 16">
  <path id="FB" d="M8,16A8,8,0,0,1,2.343,2.343,8,8,0,1,1,13.657,13.657,7.948,7.948,0,0,1,8,16ZM6.308,7.038a.155.155,0,0,0-.155.155V8.441a.155.155,0,0,0,.155.155H7.3v3.15a.155.155,0,0,0,.155.155H8.745a.155.155,0,0,0,.155-.155V8.6h1.158a.155.155,0,0,0,.155-.155V7.193a.154.154,0,0,0-.155-.155H8.9V6.307c0-.351.084-.529.541-.529H10.1a.155.155,0,0,0,.155-.155V4.464a.155.155,0,0,0-.155-.155l-.985,0A1.729,1.729,0,0,0,7.3,6.176v.861Z" fill="#1f2630"/>
</svg>
