<svg xmlns="http://www.w3.org/2000/svg" width="16" height="16" viewBox="0 0 16 16">
  <g id="Phone" transform="translate(-0.001)">
    <path id="Path_165" data-name="Path 165" d="M8,0a8,8,0,1,0,8,8A8,8,0,0,0,8,0Zm4.225,11.673-.641.641a1.181,1.181,0,0,1-.46.185A7.555,7.555,0,0,1,3.5,4.857a1.192,1.192,0,0,1,.188-.439l.641-.641a1.07,1.07,0,0,1,1-.236l.135.045A1.266,1.266,0,0,1,6.2,4.36l.322,1.183a1.16,1.16,0,0,1-.265,1.013l-.428.428a4.543,4.543,0,0,0,3.194,3.2l.428-.428a1.159,1.159,0,0,1,1.013-.266l1.182.323a1.267,1.267,0,0,1,.773.731l.045.137A1.071,1.071,0,0,1,12.226,11.673Z" fill="#fff"/>
  </g>
</svg>
