<svg xmlns="http://www.w3.org/2000/svg" width="10.153" height="11" viewBox="0 0 10.153 11">
  <g id="Thumbs" transform="translate(-18.283)">
    <path id="Path_166" data-name="Path 166" d="M28.113,6.148a1.911,1.911,0,0,0,.324-1.077,1.715,1.715,0,0,0-1.692-1.686H25.581A2.9,2.9,0,0,0,25.9,2.115a2.743,2.743,0,0,0-.231-1.23,1.453,1.453,0,0,0-.674-.671,2.258,2.258,0,0,0-1-.215A.839.839,0,0,0,23.4.245a1.59,1.59,0,0,0-.41.714q-.126.436-.2.836a1.122,1.122,0,0,1-.235.565q-.324.35-.707.846a5.847,5.847,0,0,1-.906,1.025H19.129a.846.846,0,0,0-.846.846V9.308a.846.846,0,0,0,.846.846h1.9a4.888,4.888,0,0,1,.912.264q.813.284,1.431.433A5.334,5.334,0,0,0,24.629,11h.853a2.107,2.107,0,0,0,1.5-.532,1.872,1.872,0,0,0,.562-1.451,1.861,1.861,0,0,0,.4-1.177,2,2,0,0,0-.02-.284,1.9,1.9,0,0,0,.251-.952A1.726,1.726,0,0,0,28.113,6.148ZM19.85,9.182a.415.415,0,1,1,.126-.3A.407.407,0,0,1,19.85,9.182Zm7.6-3.569q-.142.3-.354.311a.893.893,0,0,1,.165.314,1.189,1.189,0,0,1,.066.367,1.045,1.045,0,0,1-.35.786.914.914,0,0,1,.119.456,1.113,1.113,0,0,1-.116.486.737.737,0,0,1-.314.347,2.26,2.26,0,0,1,.033.37q0,1.1-1.269,1.1h-.8a7.3,7.3,0,0,1-2.261-.483L22.177,9.6l-.235-.083q-.076-.027-.231-.076t-.251-.073q-.1-.023-.218-.043a1.333,1.333,0,0,0-.208-.02h-.212V5.077h.212a.568.568,0,0,0,.235-.059,1.117,1.117,0,0,0,.264-.179q.136-.119.254-.235a3.761,3.761,0,0,0,.264-.291q.145-.175.228-.281t.208-.271l.152-.2q.364-.449.509-.6a1.679,1.679,0,0,0,.393-.724q.122-.44.2-.83a1.094,1.094,0,0,1,.251-.562.962.962,0,0,1,.846.311,1.726,1.726,0,0,1,.211.959,2.7,2.7,0,0,1-.317,1.061,2.7,2.7,0,0,0-.317,1.054h2.327a.877.877,0,0,1,.846.846A1.3,1.3,0,0,1,27.448,5.613Z" transform="translate(0 0)" fill="#fff"/>
  </g>
</svg>
